<svg width="3000" height="695" viewBox="0 0 3000 695" fill="none" xmlns="http://www.w3.org/2000/svg">
<path d="M1890.85 695H1762.32V10.5075H1890.85V695Z" fill="black"/>
<path d="M2104.87 151.009H2265.32L1869.58 550.746L1774.41 478.394L2104.87 151.009Z" fill="black"/>
<path d="M2448.61 569.81C2472.76 569.81 2494.04 566.207 2512.44 559.002C2531.42 551.197 2548.96 539.188 2565.06 522.976L2636.66 604.035C2592.95 656.272 2529.12 682.391 2445.16 682.391C2392.82 682.391 2346.53 671.883 2306.27 650.868C2266.02 629.253 2234.96 599.531 2213.11 561.704C2191.26 523.877 2180.33 480.946 2180.33 432.911C2180.33 385.477 2190.97 342.847 2212.25 305.019C2234.1 266.592 2263.72 236.87 2301.1 215.855C2339.05 194.24 2381.61 183.432 2428.77 183.432C2473.05 183.432 2513.3 193.339 2549.53 213.153C2585.76 232.367 2614.52 260.587 2635.79 297.814C2657.65 334.441 2668.57 377.972 2668.57 428.408L2325.25 497.758C2335.03 521.775 2350.27 539.788 2370.97 551.797C2392.25 563.806 2418.13 569.81 2448.61 569.81ZM2428.77 289.708C2394.84 289.708 2367.23 301.117 2345.95 323.933C2324.68 346.749 2313.46 378.272 2312.31 418.501L2538.32 372.568C2531.99 347.35 2519.05 327.235 2499.5 312.225C2479.95 297.214 2456.37 289.708 2428.77 289.708Z" fill="black"/>
<path d="M2138.65 151.009L2138.44 151.135L2138.51 151.271L2138.65 151.009Z" fill="black"/>
<path d="M2243.9 492.594C2242.83 494.017 2241.72 495.425 2240.59 496.818C2231.04 508.543 2219.48 518.344 2205.91 526.222C2185.81 537.892 2167.12 543.584 2149.86 543.298C2132.32 542.487 2116.1 536.107 2101.18 524.156C2086.76 511.913 2073.41 494.247 2061.11 471.157L1983.6 325.587L1862.97 395.609L1951.8 562.432C1973.88 603.89 1999.27 635.52 2027.99 657.322C2056.43 678.599 2086.76 689.845 2118.99 691.06C2151.22 692.274 2184.17 683.107 2217.85 663.56C2247 646.638 2270.87 626.597 2289.47 603.439C2305.45 583.069 2317.25 562.406 2324.85 541.449L2243.9 492.594Z" fill="black"/>
<path d="M947.116 675.786C898.234 675.786 854.241 665.279 815.135 644.264C776.605 622.648 746.413 592.927 724.56 555.099C702.707 517.272 691.78 474.341 691.78 426.307C691.78 378.272 702.707 335.341 724.56 297.514C746.413 259.687 776.605 230.266 815.135 209.251C854.241 187.635 898.234 176.827 947.116 176.827C995.998 176.827 1039.7 187.635 1078.23 209.251C1116.76 230.266 1146.96 259.687 1168.81 297.514C1190.66 335.341 1201.59 378.272 1201.59 426.307C1201.59 474.341 1190.66 517.272 1168.81 555.099C1146.96 592.927 1116.76 622.648 1078.23 644.264C1039.7 665.279 995.998 675.786 947.116 675.786ZM947.116 560.503C981.621 560.503 1009.8 548.495 1031.65 524.477C1054.08 499.86 1065.29 467.136 1065.29 426.307C1065.29 385.477 1054.08 353.054 1031.65 329.037C1009.8 304.419 981.621 292.11 947.116 292.11C912.611 292.11 884.145 304.419 861.717 329.037C839.288 353.054 828.074 385.477 828.074 426.307C828.074 467.136 839.288 499.86 861.717 524.477C884.145 548.495 912.611 560.503 947.116 560.503Z" fill="black"/>
<path d="M1507.19 675.786C1457.74 675.786 1413.17 665.279 1373.49 644.264C1334.38 622.648 1303.61 592.927 1281.19 555.099C1259.33 517.272 1248.41 474.341 1248.41 426.307C1248.41 378.272 1259.33 335.341 1281.19 297.514C1303.61 259.687 1334.38 230.266 1373.49 209.251C1413.17 187.635 1457.74 176.827 1507.19 176.827C1556.07 176.827 1598.63 187.635 1634.86 209.251C1671.66 230.266 1698.41 260.587 1715.08 300.216L1610.71 358.758C1586.55 314.326 1551.76 292.11 1506.33 292.11C1471.25 292.11 1442.21 304.119 1419.2 328.136C1396.2 352.153 1384.7 384.877 1384.7 426.307C1384.7 467.736 1396.2 500.46 1419.2 524.477C1442.21 548.495 1471.25 560.503 1506.33 560.503C1552.34 560.503 1587.13 538.287 1610.71 493.855L1715.08 553.298C1698.41 591.726 1671.66 621.747 1634.86 643.363C1598.63 664.978 1556.07 675.786 1507.19 675.786Z" fill="black"/>
<path d="M3000 651.769C2986.77 661.976 2970.38 669.782 2950.83 675.186C2931.85 679.989 2912.01 682.391 2891.31 682.391C2835.53 682.391 2792.68 667.68 2762.78 638.259C2732.88 608.838 2717.92 565.607 2717.92 508.566V83.46H2852.49V201.445H2967.22V309.523H2852.49V506.765C2852.49 527.179 2857.38 543.091 2867.16 554.499C2876.93 565.307 2891.02 570.711 2909.42 570.711C2930.13 570.711 2948.53 564.706 2964.63 552.698L3000 651.769Z" fill="black"/>
<path fill-rule="evenodd" clip-rule="evenodd" d="M364.026 0H0V675.186H364.025C520.13 675.186 646.677 543.06 646.677 380.073V295.112C646.677 132.126 520.13 0 364.026 0ZM323.195 150.108H143.482V337.743C143.482 441.371 223.942 525.378 323.195 525.378C422.447 525.378 502.907 441.371 502.907 337.743C502.907 234.115 422.447 150.108 323.195 150.108Z" fill="black"/>
</svg>
